<?xml version="1.0" encoding="utf-8"?>
<!-- Generator: Adobe Illustrator 24.1.0, SVG Export Plug-In . SVG Version: 6.00 Build 0)  -->
<svg version="1.1" id="Layer_1" xmlns="http://www.w3.org/2000/svg" xmlns:xlink="http://www.w3.org/1999/xlink" x="0px" y="0px"
	 viewBox="0 0 90 90" style="enable-background:new 0 0 90 90;" xml:space="preserve">
<style type="text/css">
	.st0{fill:#004564;}
</style>
<g id="Layer_2_1_">
	<g id="Layer_5">
		<path class="st0" d="M66,31.2H24c-0.6,0-1,0.5-1,1c0,0.6,0.5,1,1,1h42c0.6,0,1-0.5,1-1C67,31.7,66.6,31.2,66,31.2z"/>
		<path class="st0" d="M66,44H24c-0.6,0-1,0.4-1,1s0.4,1,1,1h42c0.6,0,1-0.4,1-1S66.6,44,66,44z"/>
		<path class="st0" d="M66,56.7H24c-0.6,0-1,0.5-1,1s0.5,1,1,1h42c0.6,0,1-0.5,1-1S66.6,56.7,66,56.7z"/>
		<path class="st0" d="M45,0C20.1,0,0,20.1,0,45s20.1,45,45,45s45-20.1,45-45C90,20.2,69.8,0,45,0z M45,87.9
			C21.3,87.9,2.1,68.7,2.1,45S21.3,2.1,45,2.1S87.9,21.3,87.9,45l0,0C87.9,68.7,68.7,87.9,45,87.9z"/>
	</g>
</g>
</svg>
