<svg id="Layer_1" data-name="Layer 1" xmlns="http://www.w3.org/2000/svg" viewBox="0 0 164.84 192.59"><defs><style>.cls-1{fill:none;stroke:#1c164e;stroke-miterlimit:10;stroke-width:1.68px;}.cls-2{fill:#1c164e;}.cls-3{fill:#ed1c27;}</style></defs><title>ShesNext_Logo_CMYK</title><line class="cls-1" x1="9.79" y1="120.48" x2="159.44" y2="120.48"/><path class="cls-2" d="M9.86,138.62v-.05a8.81,8.81,0,0,1,8.84-9,9.09,9.09,0,0,1,6.82,2.78l-1.35,1.44a7.61,7.61,0,0,0-5.49-2.39,6.85,6.85,0,0,0-6.77,7.17v0a6.89,6.89,0,0,0,6.77,7.21,7.56,7.56,0,0,0,5.64-2.52l1.3,1.28a9.12,9.12,0,0,1-7,3.07A8.72,8.72,0,0,1,9.86,138.62Z"/><path class="cls-2" d="M30.3,138.62v-.05a8.92,8.92,0,1,1,17.83,0v0a8.92,8.92,0,1,1-17.83.05Zm15.78,0v-.05a6.94,6.94,0,0,0-6.89-7.22,6.86,6.86,0,0,0-6.84,7.17v0a6.94,6.94,0,0,0,6.89,7.21A6.86,6.86,0,0,0,46.08,138.62Z"/><path class="cls-2" d="M54.53,140V129.82h2v10c0,3.78,2,5.9,5.34,5.9s5.27-1.95,5.27-5.77V129.82h2v10c0,5.09-2.93,7.74-7.3,7.74S54.53,144.93,54.53,140Z"/><path class="cls-2" d="M76.27,129.82h2v15.66h9.85v1.83H76.27Z"/><path class="cls-2" d="M94.23,129.82h6.08c5.49,0,9.29,3.77,9.29,8.7v0c0,4.92-3.8,8.74-9.29,8.74H94.23Zm2,1.83v13.83h4.1c4.42,0,7.24-3,7.24-6.86v-.05c0-3.88-2.82-6.92-7.24-6.92Z"/><path class="cls-2" d="M126.27,129.82h7.44a6.44,6.44,0,0,1,4.57,1.55,3.85,3.85,0,0,1,1.12,2.8v.05a4.22,4.22,0,0,1-2.77,4.05c2.08.62,3.75,1.82,3.75,4.22v0c0,3-2.52,4.77-6.35,4.77h-7.76Zm11.14,4.62c0-1.72-1.38-2.84-3.88-2.84h-5.32v6h5.18c2.37,0,4-1.08,4-3.13Zm-3.68,4.92h-5.52v6.17h5.87c2.65,0,4.3-1.17,4.3-3.12v0C138.38,140.46,136.78,139.36,133.73,139.36Z"/><path class="cls-2" d="M146.8,129.82h12.64v1.8H148.78v6h9.54v1.8h-9.54v6.12h10.79v1.8H146.8Z"/><path class="cls-2" d="M10.54,154.46H20.4l15.69,20.16V154.46H46.54v38.13H37.28L21,171.68v20.91H10.54Z"/><path class="cls-2" d="M53.3,154.46H84v9H63.76v5.77h18.3v8.34H63.76v6.05H84.24v9H53.3Z"/><path class="cls-2" d="M99.92,173.2,87.39,154.46H99.54l6.76,10.73,6.81-10.73H125l-12.53,18.63,13.08,19.5H113.38l-7.3-11.49-7.35,11.49H86.85Z"/><path class="cls-2" d="M138.81,163.72H127.38v-9.26h33.44v9.26H149.38v28.87H138.81Z"/><path class="cls-3" d="M43.72,108.47a.55.55,0,0,0-.44.14c0,.15-.15.29-.15.44a4.82,4.82,0,0,0,.88.43c-.29,0-.29.15-.59.15.15.14.3.29.44.29a3.37,3.37,0,0,1-.73.58c-.14.14-.29.14-.43.29s0,.15-.15.29a.48.48,0,0,1-.29.15c-.14.14-.29.29-.29.43-.14.29-.58.15-.87.29a.9.9,0,0,1-.87,0,.53.53,0,0,0-.15.44h.3a.63.63,0,0,1-.15.72.49.49,0,0,1-.29-.14c-.44,0-.58.29-.73.58-.29,0-.43.29-.72.44-.15-.15-.29-.15-.29-.3a2.24,2.24,0,0,1,.14-.87c-.43.29-.14.73-.43.87h-.58v.44c-.3.15-.59.15-.73.29A.75.75,0,0,1,36,114c-.15.14-.29.29-.44.29.15.14.44.14.58.29a1.93,1.93,0,0,1-.58.43v.44h.73a2.54,2.54,0,0,1-1.45,0c-.44.14-.29.58-.58,1-.44,0-.73.44-1.31.59s-.73.43-1.16.58c0,.14,0,.14-.15.29a1.62,1.62,0,0,0-.72.14v.15h-.15l-.44.43a.53.53,0,0,1-.43-.14c0,.14,0,.14.14.29a4.34,4.34,0,0,0-1.16.58h-.58v.29c-.14.14-.44.14-.58.29s-1,.29-1.45.14h-.15c-.14,0-.29.15-.43.3.14,0,.14.14.29.29h-.44a1.93,1.93,0,0,1-.58.43H23.67v.29a1,1,0,0,1-.87.58c-.43.15-1,.15-1.45.29s-1,.29-1.6.44h-.14a6.46,6.46,0,0,1-1.6.43h-.73a5.28,5.28,0,0,0-1.45.15H15.4c-.44,0-.73.15-1.17.15H12.05a.86.86,0,0,1-.58-.15,8.86,8.86,0,0,1-2-.29,2.13,2.13,0,0,1-.87-.29c-.29,0-.58-.15-1-.15a2,2,0,0,1-.87-.29A1.11,1.11,0,0,1,6,122c-.58,0-.87-.29-1.45-.29a4.72,4.72,0,0,1-1.3-.43A2.8,2.8,0,0,0,2,121.1c-.72-.43-1.16-1.16-2-1.6a8.23,8.23,0,0,0,1.31-1,8.63,8.63,0,0,0,1-.58.93.93,0,0,0,1.17-.29,2,2,0,0,0,1.3-.44c.15-.14.44-.14.73-.29v-.44c.14-.43.58-.29.87-.43l.29-.29A2.16,2.16,0,0,0,8,114.86a9.3,9.3,0,0,1,.58-.73.45.45,0,0,0-.15-.29c.29,0,.44-.15.73-.15a7,7,0,0,1,1-.58,3.69,3.69,0,0,1,.72-.87A.48.48,0,0,0,11,112c.14-.14.43-.29.58-.43h.43c.15-.29.44-.44.59-.73v-.29c-.29-.15-.59,0-.88,0a1,1,0,0,0-1.16.87h-.14c0-.14-.15-.14-.29-.29.14-.14.14-.29.29-.44a3.74,3.74,0,0,1,1-.58.88.88,0,0,1,.88-.43h.29c.14-.15.43-.44.58-.58a4.64,4.64,0,0,1,.87-.44c.29,0,.58-.29.87-.43a2.7,2.7,0,0,1,.73-.59.31.31,0,0,0,.29-.29c.43-.14,1-.14,1.16-.58h.58a.49.49,0,0,1,.29-.14v-.44a2.25,2.25,0,0,1,1.16-.72c.15-.15.44-.15.58-.29s.29-.15.44-.15.58-.14.58-.44a.71.71,0,0,1,.43-.14,3.1,3.1,0,0,0,.73-.44,2.93,2.93,0,0,0,.58-.87h.58c0-.14.15-.29.15-.43a1.78,1.78,0,0,0,.87-.15c-.15,0-.15-.14-.29-.29.14,0,.29-.14.43-.29a3.66,3.66,0,0,0,1.6-1,1.75,1.75,0,0,1,.73-.72,2.79,2.79,0,0,1,.72-.58v-.29a.48.48,0,0,0,.29-.15.14.14,0,0,0,.15-.14c.14-.29.29-.73.58-.88,0-.14.15-.14.15-.14l.87-1.31a4.38,4.38,0,0,0,.72-1.45l.15-.15a4.83,4.83,0,0,1,.73-1.16c.43-.14.29-.58.29-1a3,3,0,0,0,.58-1.17,2.14,2.14,0,0,1,.29-1.3c.14-.29.14-.58.29-1a1.2,1.2,0,0,1,0-1V87.7c0-.15.14-.15.14-.29a.28.28,0,0,1,0-.44c.44-.29.29-.58,0-1a2.07,2.07,0,0,0,.15-1.31.45.45,0,0,1,.14-.29c-.14-.15-.14-.15-.14-.29a.53.53,0,0,1-.15-.44c.44-.43.15-1,.29-1.6a5,5,0,0,1,0-1.45,1.14,1.14,0,0,0-.14-.58c0-.29.14-.73-.15-1s-.14-.14-.14-.29a6.64,6.64,0,0,0-.29-2.32c0-.15-.15-.29-.29-.44a1.76,1.76,0,0,0-.29-1.16A7,7,0,0,1,31.23,73a8.27,8.27,0,0,1-1.31-3.34h-.15a1.93,1.93,0,0,0-.43-.58h-.15A2.64,2.64,0,0,0,28.9,68c-.14-.15-.29-.15-.29-.29s-.14-.73-.29-1.17a.49.49,0,0,0-.29-.14c-.15-.44-.15-.87-.29-1.31a2.93,2.93,0,0,1-.87-.58.79.79,0,0,0-.44-.58c-.14,0-.29-.29-.29-.44s-.43-.58-.43-.87-.15-.29-.44-.58a1.14,1.14,0,0,0-.14-.58.54.54,0,0,1-.3-.14c-.14-.44-.29-.73-.43-1.17a.14.14,0,0,1-.15-.14c-.58-.29-.72-.73-1-1s-.73-.58-.87-1a.15.15,0,0,0-.15-.15c-.14-.15-.29-.44-.43-.58s-.3-.15-.3-.29-.29-.29-.29-.44a4.63,4.63,0,0,1-1.3-1c-.15,0-.15-.15-.29-.29a10.52,10.52,0,0,1-1.17-1.31c-.29-.29-.43-.58-.72-.73s-.44-.43-.58-.58-.44-.29-.73-.29L16,51.83c0-.3-.15-.59-.44-.59l-.73-.72c-.14-.44-.14-.44-.43-.29-.29-.15-.44-.44-.73-.58s.15-.44-.29-.44c-.29-.14-.43-.29-.72-.43v-.44a7.11,7.11,0,0,1-1.17-1A1.18,1.18,0,0,1,11,46.16c-.15-.14-.29-.14-.58-.29v-.43c-.15-.15-.15-.15-.29-.15a.56.56,0,0,1,.14-.44c-.43-.14-.58-.43-.72-.87a.31.31,0,0,1-.3-.29A2,2,0,0,0,9,42.82c-.14-.14-.14-.29-.14-.58a.45.45,0,0,0,.29-.15.53.53,0,0,1,.14-.43l-.43-.44v-.43l.87.43c0-.29.15-.43.15-.72-.29-.15-.29-.15-.73,0v-.15c-.29-.29-.44-.58-.73-.72.44-.29.29-.59.15-.88a1.1,1.1,0,0,0,.29-.58c.14,0,.14.15.29.29a1.9,1.9,0,0,1,.44-.58h-.3a7.77,7.77,0,0,1-.87-1.16v.15c0-.29,0-.44-.14-.58.29,0,.43-.15.43-.29V35c.15-.15.15-.29.29-.44-.14-.14-.14-.29-.29-.43.15-.29.44-.58.58-.87a3.14,3.14,0,0,1,.15-1.17c0-.14,0-.14-.15-.29,0-.29,0-.58.15-.72s.29-.44.15-.58.29-.58.14-.88v-.29c.15-.29.44-.58.44-.87a3.8,3.8,0,0,0,.29-1v-.88a.45.45,0,0,1,.29-.14A4.75,4.75,0,0,0,11,25.25a.43.43,0,0,1,.29-.15c.14-.29.14-.72.29-.87s.14-.14.29-.14c0-.29-.15-.73.29-.88.15,0,.29.29.58.15l-.43-.44a.53.53,0,0,0,.43-.14c0-.15-.14-.29-.14-.44a.53.53,0,0,0,.29-.14h.72c-.14-.15-.14-.29-.29-.44.15-.58.73-.72,1-1a.48.48,0,0,0-.15-.29,6.92,6.92,0,0,0,.73-1,.45.45,0,0,0,.29-.15,1.52,1.52,0,0,1,.15-.72,1.09,1.09,0,0,0,.43-.15c0-.14.15-.29.15-.58a.53.53,0,0,0,.43-.14.53.53,0,0,1,.15-.44c.29-.15.58-.58,1.16-.58.29-.15.29-.44.72-.58,0-.29.3-.44.59-.44.14,0,.14-.14.14-.29.44-.29,1-.43,1.31-.87a3.15,3.15,0,0,1,1.74-.73.32.32,0,0,1,.29-.29,3.61,3.61,0,0,0,1.31-.43.47.47,0,0,0,.14.29c0-.15.15-.15.15-.29h-.29a1.32,1.32,0,0,1,1-.44,7,7,0,0,0,1-.43,1.38,1.38,0,0,1,1.31,0,.45.45,0,0,0-.29.14c.58.15.72-.43,1.16-.29.15.15.15.29.29.44.29-.15.29-.58.58-.73.15.29.15.44.29.73.44-.15.29-.44.44-.73.29.15.43.44.87.29a.53.53,0,0,1,.14-.29c.3-.14.59-.14.88-.29h.72c.15-.14.29,0,.44-.14a.9.9,0,0,1,.87,0c.14.14.43,0,.73,0a1.1,1.1,0,0,0,.72.14c.58,0,1.16.15,1.74.15s.88.14,1.46.29c.43.14,1,.14,1.74.29a1.65,1.65,0,0,0,1.16.43v.29a1.79,1.79,0,0,1,1.31.44,3.74,3.74,0,0,0,1,.58c.44.43,1,.58,1.31,1,.44.43,1,.72,1.45,1.16a.65.65,0,0,0,.59.43c.43.15.58.58.87.73.58.44.72,1,1.16,1.45,0,.15.14.15.14.29a.15.15,0,0,1,.15.15c.14.43.43.87.58,1.45s.29,1,.44,1.45a6.52,6.52,0,0,1,0,2.33,9.21,9.21,0,0,0-.3,1,9.3,9.3,0,0,1-.14,2v.29h-.29a1.29,1.29,0,0,0-.15-.73c-.14-.14-.43-.14-.43-.44a.47.47,0,0,0-.29-.14c-.29-.44-.58-.58-.87-1h-.29l-1.6-1.59a4.3,4.3,0,0,1-.73-.88,2.26,2.26,0,0,1-.58-.58c0-.14-.14-.29-.29-.43-.43-.15-.58-.44-1-.73a1,1,0,0,0-.87-.43l-.14-.15A7.9,7.9,0,0,0,40.38,20a10.59,10.59,0,0,0-2.18,0,2.62,2.62,0,0,0-1.46.58,4.57,4.57,0,0,0-1,.73c-.29.29-.58.43-.73.87a.49.49,0,0,1-.29.14,2.48,2.48,0,0,1-.58.73c-.58.14-.58.73-1.16.87,0,.15-.15.29-.15.44s-.29.14-.43.29-.15.58-.29.72c-.44.29-.29.87-.73,1.16-.14.3-.29.44-.43.73a.31.31,0,0,1-.3.29c0,.58-.58,1-.58,1.6-.58.29-.43.87-.87,1.16a.56.56,0,0,0-.14.44c0,.29-.15.58-.15.87v.43c0,.44-.14.87-.14,1.31-.15.29,0,.44,0,.73a2.91,2.91,0,0,1,.14,1.16,4.31,4.31,0,0,1,.15,1.45l.43.87a9.58,9.58,0,0,0,.73,1.75c0,.14.14.14.29.43a2.47,2.47,0,0,1,0,1,2,2,0,0,0,.29.87c.29.58.44,1.16.73,1.89a10.09,10.09,0,0,1,.87,1.74c.14.29.29.44.43.73-.14.14-.14.29-.29.43s.15.29.15.44a.56.56,0,0,0,.14-.44h.29c.15.15.29.29.29.44v.29c.29.14.58.14.73.29l-.15.14c.73.15.88.58,1.17,1a.73.73,0,0,0,.58.29,3.33,3.33,0,0,1-.44.73c0,.14,0,.29.15.29a.91.91,0,0,1,.58.14h-.44c.15.29-.43.58-.29.87.29,0,.58.15.87.15v.14c-.14,0-.14,0-.43.15h.43v-.15h.29c.29.15.44.44.88.29.14.3.29.44.43.73a2.29,2.29,0,0,0,.73.29,2.36,2.36,0,0,0,1,1.6l.15.14a.15.15,0,0,1-.15.15l.15-.15h.14a.53.53,0,0,0,.15.44c.14,0,.29.15.44.15,0,.58.72,1,.72,1.59.29.15.44.15.73.29s.14.73.29,1l.58.58.43.44c.15.14.15.14.15.29s-.15.14-.15.29c.44,0,.73.43,1,.58a.43.43,0,0,1,.15.29c-.29.14-.44.29-.73.43a2.7,2.7,0,0,1,.73.59c0-.15,0-.15.14-.29a.51.51,0,0,1-.43-.15v-.15c.58.15,1,.44.87,1h.43c.15.29-.14.44-.14.58h.72c.15.29-.14.29-.29.44a3.82,3.82,0,0,1,1,2,2,2,0,0,1,.44.73c.14.14.14.29.29.29s.29.29.43.58a1.47,1.47,0,0,1,.29,1.31c.15.14.15.29.29.29v.14c-.14.58.44.73.73,1.16.14,0,.14.15.29.29-.15.15-.58-.14-.58.29s.43.15.72.15.15.14.15.44c0,.14.14.29.29.43a1.08,1.08,0,0,1-.58.15.14.14,0,0,0,.14.14.75.75,0,0,0,.59.29c0,.15-.15.29-.15.44a.67.67,0,0,1,.44.72c-.15.15,0,.44.14.58A1.8,1.8,0,0,1,51,74.63c0,.14.14.29.14.43a.56.56,0,0,1-.14.44,1.16,1.16,0,0,0,.43-.29c.15.29.15.58.29.72l.15.15c0,.58.29,1,.14,1.6a8.65,8.65,0,0,0,.15,2l.29.29v.15c.14.72.14,1.45.29,2.17v.29a3.07,3.07,0,0,0,0,1.17c0,.29.15.58.15,1a2.89,2.89,0,0,1-.3.87c0,.3.15.73.15,1.17a.45.45,0,0,1-.15.29l.3.29a.51.51,0,0,0-.15.43h-.29c.14.44.58.73,1,1.16-.15.15-.15.3-.29.44.14.15.14.29.29.44-.15.14-.15.29-.29.43s.14.29.14.44-.14.43-.14.58a.56.56,0,0,1-.44.14c.15.29,0,.44-.15.58H53v.44l-1.31.87c-.14-.14-.14-.29-.29-.43-.14.14-.14.14-.29.14.44.15.29.58.44.87a.59.59,0,0,1,.58.29.52.52,0,0,0-.15.29c.29.29.44.73,0,1,0,.29.44.58.15.87-.44,0-.73-.43-1.16-.29.14.15.14.29.29.44-.15.14-.58.14-.44.43a1.06,1.06,0,0,1,.58.15c.15.43-.43.72-.58,1.16.15,0,.29.15.58.15a.53.53,0,0,1-.14.29h-.44l.44.43a2.81,2.81,0,0,1-.29,1c-.15,0-.29.14-.44.14a.56.56,0,0,0-.14.44H50v.14a1.05,1.05,0,0,1,.58.3c.15.29-.29.43-.58.58a.51.51,0,0,1,.15.43c-.15.15-.3.44-.73.29a1.32,1.32,0,0,1-.29.44h-.73c.15.29.15.43.29.58l-.29.29a4,4,0,0,1,.29.29v.29c-.29,0-.58.14-.87.14,0,.15-.14.3-.14.44a.43.43,0,0,0-.29.15v.43a.52.52,0,0,0-.15.29l.44.44a.3.3,0,0,0-.29.29c-.58-.29-.58-.29-.88,0,0,.29.3.14.44.14.15.29,0,.44-.14.44l-.44.43c-.15,0-.29.15-.58.15s-.15-.15-.29-.15-.29.15-.44.15a1.09,1.09,0,0,1-.43-.15c-.15.15-.15.3-.44.59a.56.56,0,0,1-.14-.44l-.15.15c0,.14.15.29.15.43v-.14A.32.32,0,0,1,43.72,108.47Zm-42.27,12,.15-.14H1.45Zm1,.44h.14v-.15a.43.43,0,0,1-.29.15ZM9.88,43H10c-.14,0-.14-.15-.29-.15A.15.15,0,0,1,9.88,43ZM11,28.73h.29v-.14H11Zm.87-4.06h0Zm0,22.51-.15.14h.44C12.05,47.18,12.05,47.18,11.91,47.18Zm.58-23.09c-.14.14-.14.14-.29.14l.29.29Zm-.14,86h.29c0-.14-.15-.14-.15-.14Zm.29,1.75c.29,0,.43,0,.43-.29C12.78,111.52,12.64,111.52,12.64,111.81Zm1-88.45c-.14.14-.14.14-.29.14,0,.15.15.15.29.3Zm.73-2.18c.29.15.43.15.43-.14C14.67,21,14.52,21.18,14.38,21.18Zm1-.87h.29C15.54,20.16,15.54,20.16,15.4,20.31ZM16,19c-.44-.14-.44,0-.44.29C15.83,19.29,16,19.15,16,19Zm.58,1.16v0Zm1.74,86.42a3.35,3.35,0,0,1,1.16-.29v-.15l-.14-.14a7,7,0,0,0-1,.43Zm.44-88.74h-.15V18Zm3.05,87.87h0Zm.58-1.89h-.15a.14.14,0,0,0,.15.14Zm.43-45.75v0Zm1-44.15h-.15v.14S23.82,14.06,23.82,13.92Zm0-.58v.29c0-.15,0-.15.14-.15C23.82,13.48,23.82,13.48,23.82,13.34Zm1.6-.15s0-.14-.29-.14l.14.14Zm3,105.73c.14,0,.14.15.14.15a.15.15,0,0,0,.15-.15h-.29Zm.72-.29c-.14,0-.14.15-.14.29.14-.14.14-.14.29-.14v-.15Zm.58-77.7h0ZM31.08,12c-.29,0-.44,0-.29.29A4,4,0,0,0,31.08,12ZM33.4,48.92v-.14h-.14Zm.15,67.24h0Zm.14-67.38c.15.14.15.29.44.14A.56.56,0,0,0,33.69,48.78ZM34.42,115c0-.14,0-.14-.14-.29V115Zm.29-66.52v0Zm3.2,68.41c.29,0,.58.15,1-.15h-.58l-.29-.29c-.14.15-.14.29-.29.44Zm.43-4.21v-.15h.29v-.14a.49.49,0,0,1-.29.14C38.2,112.53,38.2,112.53,38.34,112.68ZM38.63,64h.29C38.78,63.88,38.63,63.88,38.63,64Zm.73,48.51a.53.53,0,0,0-.44.15C39.21,112.82,39.21,112.82,39.36,112.53Zm.29-57.22a.45.45,0,0,1,.29-.14c0-.15,0-.15-.15-.15s-.14.15-.29.15C39.65,55.17,39.65,55.17,39.65,55.31Zm.58,9c0-.3-.15-.3-.44-.15s-.14.15.15.29.29-.14.44-.14Zm.87.14h.29l-.29-.29Zm0,47.2v0ZM43,58.07v.15a.14.14,0,0,0,.14-.15Zm.58,2h0Zm.87,2.62h-.29c.15.14.15.14.29.14Zm1.16.58-.14.14C45.75,63.44,45.75,63.44,45.6,63.3Zm.29,47.05c0-.29-.14-.29-.29-.29Zm.73-44.58v.14l.15-.14a.15.15,0,0,1-.15-.15Zm0,44.15v.43h.44Zm1.31-6.39h.14v-.15h-.14Zm.58-33.41c-.15.15-.15.3-.29.44a.9.9,0,0,0,.58-.14C48.65,70.27,48.51,70.27,48.51,70.12Zm.58,32.1h0Zm0,5.37.14.15v-.15Zm.72-6.09c-.43,0-.43,0-.43.29C49.52,101.64,49.67,101.64,49.81,101.5Zm.3-28.91h0Zm.14,25.71h-.14v.15c.14,0,.14-.15.29-.15Zm0-20v.29h.15C50.25,78.4,50.25,78.4,50.25,78.26ZM51,79.71c.29,0,.29-.15.14-.29h-.58C50.69,79.71,50.83,79.86,51,79.71ZM50.83,96c.15,0,.15,0,.15-.15h-.44C50.69,96,50.69,96,50.83,96Zm0-3s0-.15-.14-.15v.15ZM51,95v.14h.14A.14.14,0,0,1,51,95Zm.58-.29-.29-.29c0,.14,0,.14-.15.29Zm-.15-7.26.15.43h0Zm.29,1.6h0Zm0,2.32Zm.29,10.75v.15H52Zm0-11a.14.14,0,0,0,.14.15v-.15Zm0,.58v.3c.14,0,.14-.15.29-.15C52.28,92.2,52.28,92.2,52.14,92.05Zm.29-19.89h0ZM52.28,89c.15,0,.29.15.44.15C52.72,89,52.57,88.86,52.28,89Zm.88-14.66v.14h.14v-.14Zm.29,1h.14v-.14h-.14Zm1.74,15.11a.28.28,0,0,0,0-.44C55,90.31,55,90.31,55.19,90.46Z"/><path class="cls-3" d="M118.38,91.73a2,2,0,0,0,.27,1.77,2.22,2.22,0,0,1,0,1.35c-.13.41-.27.68-.41,1.09a3.77,3.77,0,0,1-.27,1.22,4.52,4.52,0,0,1-.27,1.91V101a6.69,6.69,0,0,1-.27,1.63,11.83,11.83,0,0,1-.54,2,1.77,1.77,0,0,1,.13.81,3.14,3.14,0,0,1-.13,1.09,2.46,2.46,0,0,0-.28.95,9.35,9.35,0,0,1,.14,1.9,8.92,8.92,0,0,0,.41,3.26v.55a2.62,2.62,0,0,1-.27,1l-.41.4a2.41,2.41,0,0,1-1.22.55,14.58,14.58,0,0,0-2.45.27,12.91,12.91,0,0,0-2.17.13,1.87,1.87,0,0,1-1.5-.13,6.38,6.38,0,0,0-1.63-.14h-1.36a3.29,3.29,0,0,1-2-.54,7.58,7.58,0,0,0-1.49-.68,1.37,1.37,0,0,1-1-.54c-.54-.55-1.22-1.23-1.77-1.91a3.82,3.82,0,0,1-1.08-1.9,4.1,4.1,0,0,0-.68-1.76,5,5,0,0,1-.41-1.5,3.29,3.29,0,0,1-.54-1c-.14-.13-.28-.27-.28-.41a10.76,10.76,0,0,0-1.22-2.58c-.13-.81-.27-1.63-.41-2.58a2.44,2.44,0,0,0-.27-.95v-.82A2.74,2.74,0,0,0,94.88,97c-.28-.55-.55-1.09-.82-1.77a5.78,5.78,0,0,1-.13-1.49,3.9,3.9,0,0,0-.28-1.36,1.81,1.81,0,0,1-.13-.82,4.1,4.1,0,0,0,.27-1.36c-.14-.4,0-.81-.14-1.22a1.66,1.66,0,0,1,.14-.81,2.92,2.92,0,0,0-.14-1.09,4.21,4.21,0,0,1-.27-1.36V83.17a4.94,4.94,0,0,0,.14-1.36,6.9,6.9,0,0,1,.13-1.63,1.55,1.55,0,0,0-.13-1.09c-.14-.27-.41-.4-.55-.27s-.13.14-.13.27a27.94,27.94,0,0,1-1.9,2.31A22.28,22.28,0,0,0,88.35,86a19.11,19.11,0,0,0-1.08,2.31,28.9,28.9,0,0,1-1.22,3,14.1,14.1,0,0,0-.68,2.58A4.39,4.39,0,0,1,85,95.12c-.14.41-.14,1-.27,1.36a2.5,2.5,0,0,0-.28,1,20.66,20.66,0,0,1-1,3.12,6.93,6.93,0,0,0-.4,1.63V103a3.88,3.88,0,0,0-.28,1.76,3.44,3.44,0,0,1-.27,1.63c-.13.27-.27.68-.41.95a1.22,1.22,0,0,1-.4,1c-.41.41-.68.82-1.09,1.23a1.41,1.41,0,0,1-.54.68c-.82.68-1.5,1.49-2.31,2.17a8.08,8.08,0,0,1-2.31,1.36,12.52,12.52,0,0,0-2,.68c-.27.13-.54.13-.82.27a7.7,7.7,0,0,1-3.94-.27c-.4-.14-.81,0-1.08-.14s-.55-.13-.82-.27l-.41-.41a2.06,2.06,0,0,1-.4-.95v-1.36a1,1,0,0,0-.14-.68,3,3,0,0,1-.13-1.9,17.37,17.37,0,0,0,.27-3.8,7.6,7.6,0,0,1-.14-1.77,21.9,21.9,0,0,1,.14-3v-.54a14.89,14.89,0,0,1,0-3.53V95a8.6,8.6,0,0,1,0-1.9,6.92,6.92,0,0,0-.14-2.86,9.56,9.56,0,0,1-.27-1.9,14.2,14.2,0,0,0,0-2.44,15.24,15.24,0,0,1-.14-3.54,6.34,6.34,0,0,0-.13-1.49A6.61,6.61,0,0,1,65,77.6a39.73,39.73,0,0,0-.14-4.08A12,12,0,0,1,65,71.35v-2A4.4,4.4,0,0,1,65.12,68a2.8,2.8,0,0,0,0-1.08c0-.41.27-.82.14-1.36a9.39,9.39,0,0,0-.14-1.91,4,4,0,0,1,0-1.76,4,4,0,0,0,.27-2.18,5.06,5.06,0,0,1,.14-2.44c.14-.54,0-1.22.14-1.77,0-.27,0-.4-.14-.54,0-.82-.14-1.63-.14-2.45a12.1,12.1,0,0,1,0-2.17c0-.14,0-.14-.13-.27a1.93,1.93,0,0,1-.27-1c0-1.09-.14-2.18-.14-3.26a1,1,0,0,1,.27-.68,2,2,0,0,1,.27-.82,10.7,10.7,0,0,0,0-3c-.4-.54-.13-1.22-.27-1.76A3.37,3.37,0,0,1,65,37.93a6.38,6.38,0,0,0-.14-1.63c-.14-.28,0-.55,0-.82a2.71,2.71,0,0,0-.27-1.36,5.57,5.57,0,0,1-.14-.68,1.61,1.61,0,0,1,.27-1.36l.14-.13c.41-.55.41-.82,0-1.22-.14-.14-.27-.28-.41-.28a3.54,3.54,0,0,1-.54-.95,1.36,1.36,0,0,1,.41-1.22c.27-.14.4-.27.54-.27a.81.81,0,0,1,1,0c.27.13.41.41.68.54s.41,0,.54-.27a25.69,25.69,0,0,0,1.09-3c.14-.41.41-.54.82-.68.13-.13.27-.13.54-.27s.27-.14.14-.41-.14-.27-.14-.41c-.14-.4,0-.67.41-.95h.27a15,15,0,0,0,1.49,1.23,2.76,2.76,0,0,1,.68-.41c.41-.27.41-.27.68,0s.27.27.41.41.54.27,1,0,.41-.28.68-.41a2.75,2.75,0,0,1,.82-.95,10.84,10.84,0,0,0,1.22-1.23,1.24,1.24,0,0,1,1.22-.4,3.55,3.55,0,0,1,1.09.13,10.2,10.2,0,0,0,2,.27,2.8,2.8,0,0,1,1.35.82c.41.54.68,1.09,1.09,1.63A7.72,7.72,0,0,0,85,25.43a1.55,1.55,0,0,1,.41,1.08,2.39,2.39,0,0,0,.27.95c.13.41.27.68.41,1.09s.27,1.22.4,1.77.14,1.22.14,1.9a6.9,6.9,0,0,0,.13,1.63,8.54,8.54,0,0,1,.14,3.26v.54a7.91,7.91,0,0,0-.27,3.13c-.14,2.17-.14,4.35-.14,6.52a3.46,3.46,0,0,1-.27,1.63,3.94,3.94,0,0,0-.13,1.22A35.05,35.05,0,0,0,85.77,54a3.08,3.08,0,0,0,0,1.9,10.05,10.05,0,0,1-.13,1.9,35,35,0,0,0-.27,3.94,4.07,4.07,0,0,1-.14,1.36A20.74,20.74,0,0,0,85,67.14v.54a3.82,3.82,0,0,0,.41,1.22c.13.28.27.28.4.14s.28-.41.55-.54a1.89,1.89,0,0,1,.68-.82c1.35-1.09,2.44-2.44,3.8-3.4l.27-.27,1-1A8,8,0,0,1,93.11,62a3.08,3.08,0,0,0,1-.95,3.75,3.75,0,0,1,.68-.81,2.87,2.87,0,0,1,1.36-.82c.81-.27,1.63-.4,2.44-.68h.28c.68.28,1.49,0,2.31.14.4.14,1,.14,1.35.27a1.09,1.09,0,0,1,.55.27,3.47,3.47,0,0,1,1.76,1.9c0,.14.14.28.28.41a33.67,33.67,0,0,1,2,3.81c.41.68,1,1.36,1.36,2a35.92,35.92,0,0,0,3.81,5.17c1.22,1.36,2.17,2.85,3.39,4.21.14.14.28.27.41.41a13.23,13.23,0,0,0,1.9,2.85.8.8,0,0,1,.14.54,1.93,1.93,0,0,0-.27.82,2.7,2.7,0,0,0,0,1.49c.13.28.27.55.4.82a2,2,0,0,1-.27,1.76.91.91,0,0,0,0,.82,3.89,3.89,0,0,1,.27,1.22,11.59,11.59,0,0,0,.28,2.31C118.52,90.64,118.38,91.19,118.38,91.73Z"/><path class="cls-3" d="M152.48,110.89a11,11,0,0,0,2.17.27l2.86-.41c.4-.14.81-.41,1.22-.54s.68-.41,1-.55a2.58,2.58,0,0,1,2.17-.81H164a.9.9,0,0,1,.81,1,.53.53,0,0,1-.13.41,2.41,2.41,0,0,1-1.36,1.63,7.4,7.4,0,0,1-1.5.68c-.54.27-1.22.4-1.76.68a4.25,4.25,0,0,1-1.22.4c-.28,0-.55.14-.82.14a2.3,2.3,0,0,1-1.36.41c-1.22.13-2.44.54-3.67.68a1.85,1.85,0,0,0-.81.27c-.27,0-.68.13-1,.13H145a5.85,5.85,0,0,1-2-.68c-.54-.27-.95-.54-1.49-.81s-1.23-.68-1.91-.95-1.22-.68-1.76-1.09a5.28,5.28,0,0,1-1.63-1.36,2.43,2.43,0,0,0-.68-.54c-.41-.27-.68-.55-1.09-.82-.54-.68-1.22-1.36-1.77-2a12.83,12.83,0,0,1-1.35-2.31v-.28a2.87,2.87,0,0,0-.55-1.49,4.8,4.8,0,0,1-.54-1.22,1.87,1.87,0,0,0-.68-1.09c-.14-.27-.27-.41-.41-.68-.41-.68-.54-1.36-1-2V97.3a2.62,2.62,0,0,0-.27-1,2.26,2.26,0,0,1-.27-1.36c0-.41-.14-.82-.14-1.36a12.91,12.91,0,0,0-.13-2.17v-.68c0-.41.13-.82.13-1.09a4.4,4.4,0,0,0-.13-1.36,15.18,15.18,0,0,1-.41-4.35V78.69c0-1.5.13-2.86.13-4.35a14.72,14.72,0,0,1,.68-2.58,2,2,0,0,1,.27-.82,4.07,4.07,0,0,0,.14-1.36,6.06,6.06,0,0,1,.82-2.17,6.47,6.47,0,0,1,.4-1,3.05,3.05,0,0,0,.82-1.77c0-.13.13-.27.27-.41.41-.68.82-1.35,1.22-2.17a20.06,20.06,0,0,1,2.18-3.67c.4-.54.81-.95,1.22-1.49l2.45-2c.27-.14.67-.41,1-.54s.95-.41,1.36-.68h7.6a2.24,2.24,0,0,1,1.36.27,2.62,2.62,0,0,0,.95.27,8.9,8.9,0,0,1,2.86.68c.27.14.4.14.54.27a3.54,3.54,0,0,1,1,.54,5.26,5.26,0,0,0,1.63,1.36,1.43,1.43,0,0,1,.82.68c.27.41.68.82.95,1.23a6.08,6.08,0,0,1,1,.95,8.24,8.24,0,0,1,1.63,2.17,15.92,15.92,0,0,1,1.49,2.58,4.91,4.91,0,0,1,.68,1.5.45.45,0,0,1,.14.27c-.14.54.13,1,.27,1.49a13.42,13.42,0,0,0,.41,3.26c.13.14,0,.27,0,.41a3.8,3.8,0,0,1-.82,1.09,2.46,2.46,0,0,1-.95.68c-.54.4-1.22.68-1.9,1.08a12.59,12.59,0,0,1-1.5,1,17,17,0,0,1-3.12,1.64c-.27.13-.54.13-.68.4a13.68,13.68,0,0,1-2.45,1.23,19.83,19.83,0,0,0-2.44,1.22c-.27.13-.68.27-.95.41a2.59,2.59,0,0,0-1.22,1.9,3.22,3.22,0,0,0,0,1.63c0,.81.13,1.49.13,2.17a2.92,2.92,0,0,0,.14,1.09,10,10,0,0,1-.14,4.48v.82a24.31,24.31,0,0,0,0,4.35,2.87,2.87,0,0,0,.14,1.08,1.09,1.09,0,0,0,.13.55,11.69,11.69,0,0,0,.28,2.31,15.83,15.83,0,0,0,.67,2.44,9.07,9.07,0,0,0,.41,1.5,14.6,14.6,0,0,0,.95,2.17,3.58,3.58,0,0,1,.55,1c.27.41.68.95.95,1.36a11.47,11.47,0,0,0,.68,1.36A1.77,1.77,0,0,1,152.48,110.89Zm-4.35-35.33c0,.27.14.54.41.41a6.61,6.61,0,0,1,1.63-.27,2.13,2.13,0,0,0,1.49-.41c.55-.27,1.09-.68,1.64-1A31.55,31.55,0,0,1,157,72.16a.75.75,0,0,1,.55-.27c.13-.13.4-.68.27-1a5.74,5.74,0,0,0-.68-1.22,2.12,2.12,0,0,1-.27-.68,4.07,4.07,0,0,0-.68-1.77,14.75,14.75,0,0,1-.68-1.76,2,2,0,0,0-.27-.82c-.55-.81-1.22-1.49-1.77-2.31-.13,0-.13-.13-.27-.13a.91.91,0,0,0-1.36,0,9.43,9.43,0,0,0-2,3.8c-.13.54-.41,1.09-.54,1.63s-.27,1.09-.41,1.77a5.27,5.27,0,0,0-.41,2.85,1.83,1.83,0,0,1-.13.82,8.65,8.65,0,0,0-.14,1.9Z"/><path class="cls-2" d="M64.44,0h1.62l7,15.42H71.17l-1.79-4.05H61.05l-1.82,4.05H57.46ZM68.7,9.8,65.23,2,61.73,9.8Z"/><path class="cls-2" d="M78.23.11h1.62l9.64,12.27V.11h1.69V15.42H89.8L79.92,2.86V15.42H78.23Z"/><path class="cls-2" d="M97.69.11H103c4.81,0,8.14,3.3,8.14,7.61v0c0,4.31-3.33,7.66-8.14,7.66H97.69Zm1.73,1.6V13.82H103c3.87,0,6.34-2.62,6.34-6v0a6,6,0,0,0-6.34-6Z"/></svg>