<svg xmlns="http://www.w3.org/2000/svg" viewBox="0 0 1936.89 1123.23"><defs><style>.laurel-1{font-size:90px;}.laurel-1,.laurel-5,.laurel-6,.laurel-7{fill:#fff;}.laurel-1,.laurel-7{font-family:Montserrat-Bold, Montserrat;font-weight:700;}.laurel-2{letter-spacing:0em;}.laurel-3{letter-spacing:-0.01em;}.laurel-4{letter-spacing:0em;}.laurel-6{fill-rule:evenodd;}.laurel-7{font-size:296px;letter-spacing:0.02em;}.laurel-8{letter-spacing:0.01em;}.laurel-9{letter-spacing:0.02em;}</style></defs><title>tribecca_2</title><g id="Layer_2" data-name="Layer 2"><g id="Layer_1-2" data-name="Layer 1"><text class="laurel-1" transform="translate(470.3 1099.29)">OFFICIAL SEL<tspan class="laurel-2" x="636.92" y="0">E</tspan><tspan class="laurel-3" x="697.13" y="0">C</tspan><tspan class="laurel-4" x="762.47" y="0">TION</tspan></text><path class="laurel-5" d="M669.23,253.33h27.68V153.08h38.26v-25.5H631v25.5h38.24Zm194.19-83.89v-.36c0-25.86-17.78-41.5-47.41-41.5H761.39V253.33h27.66V213.09h18.88l26.93,40.24H867.2l-30.73-44.91C852.47,202.49,863.42,189.74,863.42,169.44Zm-28,1.42c0,10.61-7.72,17.79-21.2,17.79H789.05v-36.1h24.61c13.49,0,21.74,6.1,21.74,18Zm250.18,48v-.36c0-16.89-9-25.34-23.51-30.91,9-5,16.51-12.92,16.51-27.11v-.36c0-19.76-15.81-32.52-41.5-32.52H978.71V253.33h59.81C1066.91,253.33,1085.58,241.84,1085.58,218.84Zm-79.93-67H1033c11.67,0,18.14,4.68,18.14,12.93v.36c0,9.34-7.73,13.29-19.94,13.29h-25.52Zm0,49.57h32c14.17,0,20.47,5.22,20.47,13.65v.36c0,9.35-7.37,13.64-19.59,13.64h-32.87Zm209.55,27.31H1147V202.33h59.29V177.71H1147V152.18h67.36v-24.6h-94.86V253.33h95.75Zm90.3,26.76c24.23,0,38.6-8.62,51.54-22.45l-17.61-17.78c-9.86,9-18.67,14.72-33,14.72-21.56,0-36.46-18-36.46-39.51v-.36c0-21.55,15.26-39.16,36.46-39.16,12.57,0,22.45,5.38,32.15,14.19l17.59-20.29c-11.66-11.5-25.86-19.4-49.55-19.4-38.63,0-65.56,29.27-65.56,65v.35C1241,226.93,1268.49,255.48,1305.5,255.48Zm175.34-2.15h28.91l-53.87-126.64h-25.51l-53.89,126.64h28.2l11.49-28.22h53.18Zm-54.79-52.64,16.71-40.77,16.71,40.77ZM789,380.17h51.72V355H789V328.25h71V303.11H761.33V428.84H789Zm189.76-77.06V428.84h90.35V403.69h-62.69V303.11Zm159.94,44.18,35,53.17h.73l35.38-53.7v82.08h27.49V303.11h-29.82l-33,53.18-33.07-53.18h-29.79V428.84h27.12Zm-742,257.12h27.66V555.75h60V530.58h-60V503.82H492.4V478.66H396.65Zm149-51.06H605V528.73H545.68v-25.5H613V478.61H518.19V604.34h95.74v-24.6H545.68ZM700,529.08c-21.76-5.56-27.12-8.27-27.12-16.5v-.38c0-6.1,5.56-10.94,16.16-10.94s21.56,4.67,32.69,12.37l14.37-20.82c-12.77-10.23-28.39-16-46.71-16-25.69,0-44,15.09-44,37.88v.37c0,25,16.34,32,41.68,38.43,21,5.4,25.32,9,25.32,16v.38c0,7.35-6.83,11.84-18.15,11.84-14.37,0-26.21-5.93-37.54-15.27L640.33,586a80,80,0,0,0,53.33,20.12c27.12,0,46.15-14,46.15-39v-.34C739.81,544.9,725.44,535.74,700,529.08Zm57.9-25h38.26V604.34h27.66V504.13H862V478.61H757.85Zm290.9,101.11,50.68-126.63h-29.68l-32.87,88.55L1004,478.61H973.47l50.85,126.63Zm142-29.08,11.5,28.18h28.91l-53.89-126.62h-25.51l-53.87,126.62H1126l11.51-28.18Zm-26.6-65.2,16.73,40.76h-33.4Zm179,68.25h-62.69V478.61h-27.64V604.34h90.33ZM902.46,704.55h28.37V53.16H902.46Z"/><path class="laurel-6" d="M543.85,977.39c-184-10.57-326.83-123.73-401-285.59-30.46-66.94-40.41-142.59-38.13-222.59C109.05,326.63,176,199,281.06,102.59c.42-.42.62-.62.83-.21a5.56,5.56,0,0,0,1.87,1c.62.21.82,0,.41.62C172.46,203.32,107.8,354.4,111.74,503.2,116.3,715.63,253.5,895.94,441.27,949.83c31.5,9.12,64.24,15.54,98,17.82A15.86,15.86,0,0,1,543.85,977.39Z"/><path class="laurel-6" d="M60.13,650.55c16.17,14.1,41,27.36,66.12,20.11,1.45,1.66,8.91,9.54,9.95,10.78,1.24,1.45,3.52,2.9,5.17,1.45.84-.63,1.66-1.87.42-3.74-3.94-3.72-8.08-7.46-12.64-11.39-10.16-33.16-23-54.92-47.87-76.27-28.61-24.45-56.79-34.41-74-38.34-2.48-.42-4.76-.83-7.25-1.24C-.59,565,8.12,583.41,14.54,594,27.18,615.32,40.45,634,60.13,650.55Z"/><path class="laurel-6" d="M240.65,164.35c-2.07.83-14.3,4.35-16,2.28-.62-.62,0-2.7,1-2.9,4.56-.62,9.53-1.25,13.88-2.28,6.22-21.76,27.77-32.33,47.88-37.1,24.24-5.6,51.81-.83,81,.83a33.15,33.15,0,0,0,4.56.21,14.86,14.86,0,0,1-1.66,2.27c-11,14.72-28.81,28.6-46.84,36.07a115.64,115.64,0,0,1-41.45,8.91C267.8,173.26,254.53,171,240.65,164.35Z"/><path class="laurel-6" d="M283.76,103.42c1,.21,1,0,2.69-1,3.32-2.9,6-4.76,9.33-7.67a108.82,108.82,0,0,0,54.71-18c7.46-5,14.92-10.77,20.93-17.62,14.51-15.12,25.49-36.68,29.64-56.16a13.72,13.72,0,0,0,.42-2.9c-1.46.62-2.7,1.24-4.15,1.87-30.88,12.64-61.14,19.48-85,41.86-16.17,14.92-23.84,32.33-18.86,48.49-3.73,2.91-7.67,5.6-11.19,8.92C280.65,102.38,282.72,103.42,283.76,103.42Z"/><path class="laurel-6" d="M180.34,257.61c-2.07,1-13.68,7.05-15.54,5.39-.83-.62-.63-2.9.41-3.31,4.35-1.66,9.53-2.91,13.68-4.77.41-15.13,9.12-29.85,28.18-40.62,29.23-15.34,63.84-15.13,96-19.48,1.66-.21,3.11-.42,4.56-.62-.41.82-.83,1.65-1.24,2.48-9.54,16.37-25.49,34.4-42.7,45.18a127,127,0,0,1-40.2,16.79C208.32,262,194.84,261.34,180.34,257.61Z"/><path class="laurel-6" d="M40.86,499.47c11.4,18,30.67,37.51,56.58,37.31,1,1.87,6.42,10.57,7.25,12,.62,1.86,2.49,3.93,4.56,2.9a3,3,0,0,0,1.45-3.53c-2.9-4.76-6.22-8.49-9.53-13.47-.42-34.4-5-59.27-22.8-86.63a168,168,0,0,0-61.76-57,59.65,59.65,0,0,0-6.42-3.31c-2.28,13.47.41,34,3.52,45.79C19.72,457.61,27.6,478.33,40.86,499.47Z"/><path class="laurel-6" d="M58.48,360c6,19.69,18.24,39.17,42.48,46.42.42,2.08,3.94,11.61,4.35,13.06.21,2.07,1.25,4.36,3.53,3.94a2.78,2.78,0,0,0,2.28-2.9c-1.45-5.19-3.73-11-5.39-16.58,5.8-24.66,8.29-47.05,5-70.67-5-33.16-22-61.14-47.05-83.11-1.86-1.66-3.52-3.32-5.17-4.77-5.6,11.82-8.29,31.71-8.5,43.52C49.56,313,51.63,337,58.48,360Z"/><path class="laurel-6" d="M107.59,230.87c1,20.53,8.71,43.11,30.26,55.13,0,2.08.41,12,.41,13.47-.2,1.87.21,4.36,2.5,4.57a2.52,2.52,0,0,0,2.69-2.28c0-5.19-.42-13.06-.63-18.66,15.34-25.9,22.39-53.47,20.32-84.55-2.28-35.86-14.72-58-24.25-71.92-1.24-1.87-2.49-3.73-3.94-5.59-8.29,9.94-15.54,28.39-18.44,39.78C110.29,183.62,106.35,207.25,107.59,230.87Z"/><path class="laurel-6" d="M188.21,110.88c-3.73,19.48.21,47.67,18,58.24-.42,2.48-1.25,11.19-1.25,13-.41,2.08-.83,4.15,1.25,4.77.82.21,1.45.21,2.27-1.66.63-5.39.63-9.95,1.25-15.54,22.38-23.21,34.4-45.6,39.58-75.44,5.18-31.29,2.08-55.75-2.69-72.75-.62-2.07-1.45-4.14-2.28-6.21-20.1,15.54-33.57,35.44-44.56,57.82C194,85.18,189.66,97.62,188.21,110.88Z"/><path class="laurel-6" d="M135.78,378.44c-1.87,1.66-12,11-14.71,9.94-.83-.41-1.46-3.31-.42-3.93,3.94-3.11,8.91-5.39,12.85-8.29-2.7-16.58.41-33.58,17-50.57,25.7-24,61.56-33.79,93.68-47.46,1.45-.62,2.9-1.45,4.56-2.07-.21,1-.41,2.07-.62,3.11-5,19.69-16.17,43.1-30.88,59.27a134.54,134.54,0,0,1-36.68,28.81C166,375.12,151.74,378.23,135.78,378.44Z"/><path class="laurel-6" d="M124,514.81c-1.25,2.28-8.92,14.71-11.82,14.3-1,0-2.48-2.69-1.66-3.94,3.32-4.15,7.47-7.67,10.37-12-6.84-14.92-6-37.1,5.59-58.86,18.86-31.91,48.71-48.7,77.1-71.91,1.25-1.25,2.49-2.28,3.73-3.53a15.92,15.92,0,0,1,.42,3.32c1,21.13-3.32,47.87-13.27,68.39-6.42,13.89-16.58,28-28.39,39.79C153.6,502.58,140.13,509.83,124,514.81Z"/><path class="laurel-6" d="M149.87,646.41c-.83,2.7-5.59,17.21-8.5,17.82-1,0-3.11-2.07-2.48-3.52,2.07-4.76,4.35-10.36,6.22-15.34-10.78-7.46-16.17-30-10-54.3,10.77-35.64,39-63.62,60.93-93.88l3.11-4.35c.41,1,.62,2.07,1,3.11,5.8,20.1,7.87,47.05,3.1,69.43a148.62,148.62,0,0,1-18.44,46C175.78,626.52,164.38,637.29,149.87,646.41Z"/><path class="laurel-6" d="M126,803.51c19.27,9.12,53.05,14.92,74.81,1,1.87,1,11.82,5.19,13.06,6,1.66,1.25,4.15,2.08,5.39,0,.63-.82,1-2.27-.62-3.73-5-2.49-10.36-3.94-15.75-6.42C183,771,162.72,751.49,132.88,738c-34.2-15.76-61.56-14.51-79.17-13.47-2.49.2-4.77.41-7.25.62C53.29,755,100.55,792.11,126,803.51Z"/><path class="laurel-6" d="M215,774.7a96.17,96.17,0,0,1-1.66,16c-.41,1.45-.41,3.73-2.9,3.11a3.45,3.45,0,0,1-2.07-2.7,106,106,0,0,0,1.24-16.17c-11.81-5.38-22.38-24.86-26.11-49.11-1-37.1,15.75-71.71,28.6-107.36a44.51,44.51,0,0,1,1.45-5c.62.84,1.24,1.66,1.87,2.5,12,17.61,22.17,42.69,24.66,65.7A143.86,143.86,0,0,1,236.92,731,105.27,105.27,0,0,1,215,774.7Z"/><path class="laurel-6" d="M236.71,923.92c21.55,2.28,50.36-.21,66.74-20.52,4.56.21,12,.83,16.78.83a2.84,2.84,0,0,0,2.7-2.28c.2-1-.21-2.28-2.49-3.11-5.39-.62-10.78-.21-16.58-.83-25.9-22.17-49.53-34.19-82.49-37.3a179.27,179.27,0,0,0-85.8,13.47,63.16,63.16,0,0,0-6.63,2.9c7.05,11.19,25.7,22,37.1,26.94C188.21,914.59,210.81,921.85,236.71,923.92Z"/><path class="laurel-6" d="M308.63,869.41c.62,2.07,1.65,10.37,2.07,16,0,1.45.62,3.53-1.87,3.73a3.16,3.16,0,0,1-2.69-2.07c-.83-5.18-1-10.57-2.49-15.75-12.85-2.7-30.88-17.83-40.41-39.59-11.81-35.23-5.18-72.53-3.73-110.46a42.59,42.59,0,0,0,0-5.18c.83.62,1.86,1.24,2.69,1.86,16.58,13.27,33.78,34.41,42.9,55.54,6.22,13.89,10.37,31.09,11.61,47.88C318,838.94,315.05,853.87,308.63,869.41Z"/><path class="laurel-6" d="M433.81,935.11c1.24,1.45,3.31,8.29,5.38,13.47.63,1.25,1.66,3.11-.41,3.94a2.85,2.85,0,0,1-3.11-1c-2.49-4.35-2.9-8.91-5.8-13.26-12,3.11-34.41-8.71-49.74-25.08-21.76-28.39-26.74-63-37.1-97.82a42.9,42.9,0,0,0-1.66-4.77c1,.21,2.08.63,3.11.83,19.28,6.84,41.45,19.49,56.37,35.86a134.57,134.57,0,0,1,26.32,40.41C433.6,903.4,435.05,918.74,433.81,935.11Z"/><path class="laurel-6" d="M372.25,1004.75c21.56-3.73,49.12-13.89,59.48-38.14,4.36-1.24,12-2.49,16.58-3.94,1.25-.2,1.87-1.45,1.87-2.9,0-.82-.83-2.07-3.11-2.27-5.39,1-10.57,2.69-16.58,3.72-32.95-14.09-59.07-19.69-91.81-13.68a175.83,175.83,0,0,0-78.34,35.86c-2.08,1.66-3.94,3.11-5.81,4.77,10,9.12,31.09,14.3,43.53,16.16C322.51,1008.68,346.35,1009.52,372.25,1004.75Z"/><path class="laurel-6" d="M1393,977.4c184-10.58,326.83-123.74,401-285.6,30.46-66.94,40.41-142.58,38.13-222.59-4.35-142.58-71.29-270.25-176.37-366.62-.41-.41-.62-.62-.82-.21a5.49,5.49,0,0,1-1.87,1c-.62.21-.83,0-.41.62,111.71,99.28,176.36,250.36,172.43,399.16-4.56,212.43-141.76,392.74-329.53,446.63-31.5,9.12-64.25,15.54-98,17.82A15.89,15.89,0,0,0,1393,977.4Z"/><path class="laurel-6" d="M1876.75,650.56c-16.16,14.09-41,27.35-66.11,20.1-1.45,1.66-8.91,9.54-10,10.78-1.24,1.45-3.52,2.9-5.18,1.45-.83-.62-1.66-1.87-.41-3.73,3.93-3.73,8.08-7.46,12.64-11.4,10.16-33.16,23-54.92,47.87-76.26,28.6-24.46,56.79-34.41,74-38.35,2.49-.42,4.77-.83,7.26-1.24.62,13.05-8.09,31.5-14.51,42.07C1909.7,615.32,1896.44,634,1876.75,650.56Z"/><path class="laurel-6" d="M1696.24,164.35c2.07.83,14.3,4.35,16,2.28.62-.62,0-2.7-1-2.9-4.56-.62-9.53-1.25-13.88-2.28-6.22-21.76-27.78-32.33-47.88-37.1-24.25-5.59-51.81-.83-81,.83a33.15,33.15,0,0,1-4.56.21,17,17,0,0,0,1.66,2.28c11,14.71,28.81,28.6,46.84,36.06a115.48,115.48,0,0,0,41.45,8.91C1669.09,173.26,1682.35,171,1696.24,164.35Z"/><path class="laurel-6" d="M1653.13,103.42c-1,.21-1,0-2.69-1-3.32-2.9-6-4.76-9.33-7.67a108.72,108.72,0,0,1-54.71-18c-7.47-5-14.93-10.78-20.94-17.62C1551,43.94,1540,22.38,1535.83,2.9a13.72,13.72,0,0,1-.42-2.9c1.45.62,2.69,1.25,4.15,1.87,30.88,12.64,61.13,19.48,85,41.86,16.17,14.92,23.83,32.33,18.86,48.49,3.73,2.91,7.67,5.6,11.19,8.92C1656.24,102.38,1654.17,103.42,1653.13,103.42Z"/><path class="laurel-6" d="M1756.55,257.61c2.07,1,13.68,7.05,15.54,5.39.83-.62.62-2.9-.41-3.31-4.35-1.66-9.54-2.91-13.68-4.77-.42-15.13-9.12-29.85-28.19-40.62-29.22-15.34-63.83-15.13-96-19.48-1.65-.21-3.11-.42-4.56-.62.42.82.84,1.65,1.25,2.48,9.53,16.37,25.49,34.4,42.7,45.18a126.84,126.84,0,0,0,40.2,16.79C1728.57,262,1742,261.34,1756.55,257.61Z"/><path class="laurel-6" d="M1896,499.47c-11.39,18-30.66,37.52-56.57,37.31-1,1.87-6.43,10.57-7.26,12-.62,1.87-2.48,3.93-4.56,2.9a3,3,0,0,1-1.45-3.52c2.9-4.77,6.22-8.5,9.54-13.48.41-34.4,5-59.27,22.79-86.62a168.09,168.09,0,0,1,61.77-57,61.52,61.52,0,0,1,6.42-3.31c2.28,13.47-.41,34-3.52,45.8C1917.17,457.61,1909.29,478.33,1896,499.47Z"/><path class="laurel-6" d="M1878.41,360c-6,19.68-18.24,39.16-42.48,46.42-.42,2.07-4,11.61-4.36,13.06-.2,2.07-1.24,4.35-3.52,3.93a2.78,2.78,0,0,1-2.28-2.9c1.45-5.18,3.73-11,5.39-16.58-5.8-24.66-8.29-47-5-70.67,5-33.16,22-61.14,47-83.11,1.86-1.65,3.52-3.31,5.18-4.77,5.6,11.82,8.29,31.71,8.5,43.53C1887.32,313,1885.25,337,1878.41,360Z"/><path class="laurel-6" d="M1829.29,230.88c-1,20.52-8.7,43.1-30.26,55.12,0,2.08-.41,12-.41,13.47.21,1.87-.21,4.36-2.49,4.57a2.52,2.52,0,0,1-2.69-2.28c0-5.19.41-13.06.62-18.66-15.34-25.9-22.38-53.47-20.31-84.55,2.28-35.86,14.71-58,24.25-71.92,1.24-1.86,2.48-3.73,3.93-5.59,8.3,9.94,15.55,28.39,18.45,39.78C1826.6,183.62,1830.53,207.25,1829.29,230.88Z"/><path class="laurel-6" d="M1748.67,110.88c3.73,19.48-.21,47.67-18,58.24.42,2.48,1.24,11.19,1.24,13,.42,2.08.84,4.15-1.24,4.77-.83.21-1.45.21-2.28-1.66-.62-5.38-.62-9.94-1.24-15.54-22.38-23.21-34.4-45.6-39.59-75.44-5.18-31.29-2.07-55.75,2.7-72.74.62-2.08,1.45-4.15,2.28-6.22,20.1,15.54,33.57,35.44,44.56,57.82C1742.87,85.18,1747.22,97.62,1748.67,110.88Z"/><path class="laurel-6" d="M1801.11,378.44c1.86,1.66,12,11,14.71,9.95.83-.42,1.45-3.32.42-3.94-3.94-3.11-8.91-5.39-12.86-8.29,2.7-16.58-.41-33.58-17-50.57-25.7-24-61.55-33.78-93.67-47.46-1.45-.62-2.91-1.45-4.56-2.07.2,1,.41,2.07.61,3.11,5,19.69,16.17,43.1,30.89,59.27a134.54,134.54,0,0,0,36.68,28.81C1770.85,375.13,1785.15,378.23,1801.11,378.44Z"/><path class="laurel-6" d="M1812.92,514.81c1.24,2.28,8.91,14.71,11.81,14.3,1,0,2.49-2.69,1.66-3.94-3.32-4.14-7.46-7.67-10.36-12,6.84-14.92,6-37.09-5.6-58.86-18.86-31.91-48.7-48.7-77.09-71.91-1.25-1.25-2.49-2.28-3.73-3.53a16,16,0,0,0-.42,3.32c-1,21.14,3.32,47.88,13.26,68.39,6.43,13.89,16.58,28,28.4,39.79C1783.28,502.58,1796.76,509.83,1812.92,514.81Z"/><path class="laurel-6" d="M1787,646.41c.83,2.7,5.6,17.21,8.5,17.83,1,0,3.11-2.08,2.49-3.53-2.07-4.76-4.35-10.36-6.22-15.33,10.78-7.47,16.16-30.06,10-54.3-10.78-35.65-39-63.63-60.93-93.88l-3.11-4.36c-.41,1-.62,2.07-1,3.11-5.8,20.1-7.87,47.05-3.11,69.43a148.9,148.9,0,0,0,18.45,46C1761.11,626.52,1772.5,637.3,1787,646.41Z"/><path class="laurel-6" d="M1810.85,803.51c-19.28,9.12-53.06,14.92-74.82,1-1.86,1-11.81,5.18-13.06,6-1.66,1.25-4.14,2.08-5.38,0-.63-.82-1-2.27.62-3.72,5-2.49,10.36-3.94,15.75-6.43,19.9-29.43,40.2-48.91,70-62.38,34.19-15.75,61.55-14.51,79.17-13.47,2.48.2,4.77.41,7.25.62C1883.59,755,1836.34,792.11,1810.85,803.51Z"/><path class="laurel-6" d="M1721.94,774.7a95.08,95.08,0,0,0,1.66,16c.41,1.45.41,3.73,2.9,3.11a3.45,3.45,0,0,0,2.07-2.7,106,106,0,0,1-1.24-16.16c11.81-5.39,22.38-24.87,26.11-49.12,1-37.1-15.75-71.71-28.6-107.36a47.25,47.25,0,0,0-1.45-5l-1.87,2.49c-12,17.61-22.18,42.69-24.66,65.7A143.6,143.6,0,0,0,1700,731,105.09,105.09,0,0,0,1721.94,774.7Z"/><path class="laurel-6" d="M1700.18,923.92c-21.56,2.28-50.37-.21-66.74-20.52-4.56.21-12,.83-16.78.83A2.82,2.82,0,0,1,1614,902c-.2-1,.21-2.27,2.49-3.11,5.38-.62,10.77-.21,16.58-.82,25.9-22.18,49.53-34.2,82.48-37.31a179.29,179.29,0,0,1,85.81,13.47,65.14,65.14,0,0,1,6.62,2.9c-7,11.19-25.69,22-37.09,26.95C1748.67,914.6,1726.08,921.85,1700.18,923.92Z"/><path class="laurel-6" d="M1628.26,869.41c-.62,2.08-1.66,10.37-2.08,16,0,1.45-.61,3.53,1.87,3.74a3.13,3.13,0,0,0,2.69-2.08c.84-5.18,1-10.57,2.49-15.75,12.85-2.69,30.89-17.82,40.42-39.59,11.81-35.23,5.18-72.53,3.73-110.46a42.59,42.59,0,0,1,0-5.18c-.83.62-1.87,1.24-2.69,1.87-16.58,13.26-33.79,34.4-42.91,55.53-6.21,13.89-10.36,31.1-11.6,47.88C1618.93,839,1621.83,853.87,1628.26,869.41Z"/><path class="laurel-6" d="M1503.08,935.11c-1.24,1.45-3.32,8.29-5.39,13.48-.62,1.24-1.65,3.1.42,3.93a2.83,2.83,0,0,0,3.1-1c2.49-4.36,2.91-8.92,5.81-13.27,12,3.11,34.4-8.7,49.74-25.07,21.76-28.4,26.74-63,37.1-97.83a41,41,0,0,1,1.66-4.77c-1,.21-2.08.63-3.11.84-19.28,6.83-41.45,19.48-56.37,35.85a134.91,134.91,0,0,0-26.33,40.41C1503.29,903.4,1501.84,918.74,1503.08,935.11Z"/><path class="laurel-6" d="M1564.63,1004.75c-21.55-3.73-49.11-13.89-59.48-38.13-4.35-1.25-12-2.49-16.57-3.94-1.25-.21-1.87-1.46-1.87-2.9,0-.83.83-2.08,3.11-2.28,5.38,1,10.57,2.69,16.58,3.72,32.95-14.09,59.06-19.68,91.81-13.67a175.73,175.73,0,0,1,78.34,35.85c2.07,1.66,3.94,3.11,5.8,4.77-9.95,9.12-31.09,14.3-43.52,16.16C1614.37,1008.69,1590.54,1009.52,1564.63,1004.75Z"/><text class="laurel-7" transform="translate(609.63 983.23)">2<tspan class="laurel-8" x="179.67" y="0">0</tspan><tspan x="384.5" y="0">2</tspan><tspan class="laurel-9" x="564.17" y="0">0</tspan></text></g></g></svg>